<?xml version="1.0" ?><svg enable-background="new 0 0 32 32" version="1.1" viewBox="0 0 32 32" xml:space="preserve" xmlns="http://www.w3.org/2000/svg" xmlns:xlink="http://www.w3.org/1999/xlink"><g id="GLYPH"><g><path d="M16,32c8.837,0,16-7.163,16-16S24.837,0,16,0S0,7.163,0,16S7.163,32,16,32z M16,2.191c7.626,0,13.809,6.182,13.809,13.809    S23.626,29.809,16,29.809S2.191,23.626,2.191,16S8.374,2.191,16,2.191z"/><path d="M14.542,19.111c-0.444-0.284-0.943-1.301-1.775-1.245c-0.832,0.056-1.242,1.171-0.221,2.149    c0.915,0.875,1.913,1.357,4.046,1.243c2.135-0.114,4.047-2.035,3.298-3.845c-0.748-1.809-2.827-2.006-4.768-2.487    c-1.94-0.481-0.878-2.174,0.694-2.148c1.525,0.025,2.301,1.667,2.993,1.583c0.694-0.085,1.283-1.144,0.194-2.091    c-0.942-0.82-2.133-1.272-3.963-1.103c-1.435,0.133-2.8,1.075-2.966,2.911c-0.166,1.838,1.969,2.771,3.659,3.026    c1.184,0.177,2.8,0.762,1.83,1.893C16.672,20.036,14.986,19.393,14.542,19.111z"/><path d="M16,27.597c6.405,0,11.597-5.192,11.597-11.597S22.405,4.403,16,4.403S4.403,9.595,4.403,16S9.595,27.597,16,27.597z     M12.699,8.697c0.806,0,1.556,0.243,2.186,0.659c0.351-0.058,0.712-0.089,1.08-0.089c3.704,0,6.707,3.031,6.707,6.769    c0,0.311-0.023,0.617-0.063,0.918c0.439,0.652,0.695,1.44,0.695,2.288c0,2.243-1.791,4.061-4.002,4.061    c-0.776,0-1.501-0.225-2.116-0.612c-0.396,0.073-0.803,0.114-1.221,0.114c-3.705,0-6.706-3.031-6.706-6.769    c0-0.362,0.028-0.719,0.083-1.067c-0.408-0.636-0.644-1.395-0.644-2.211C8.697,10.515,10.488,8.697,12.699,8.697z"/></g></g></svg>